<?xml version="1.0" encoding="UTF-8" standalone="no"?>
<!DOCTYPE svg PUBLIC "-//W3C//DTD SVG 1.1//EN" "http://www.w3.org/Graphics/SVG/1.1/DTD/svg11.dtd">
<svg width="100%" height="100%" viewBox="0 0 948 259" version="1.1" xmlns="http://www.w3.org/2000/svg" xmlns:xlink="http://www.w3.org/1999/xlink" xml:space="preserve" xmlns:serif="http://www.serif.com/" style="fill-rule:evenodd;clip-rule:evenodd;stroke-linecap:round;stroke-linejoin:round;stroke-miterlimit:1.5;">
    <g transform="matrix(1,0,0,1,-84,-410.822)">
        <g transform="matrix(0.677255,0,0,0.677255,-51.6282,147.192)">
            <path d="M391,390C495.864,390 581,475.136 581,580C581,684.864 495.864,770 391,770C286.136,770 201,684.864 201,580C201,475.136 286.136,390 391,390ZM391,485C443.432,485 486,527.568 486,580C486,605.442 407.309,562.94 391,580C373.698,598.099 417.99,675 391,675C338.568,675 296,632.432 296,580C296,527.568 338.568,485 391,485Z" style="fill:url(#_Linear1);stroke:white;stroke-width:1.48px;"/>
        </g>
        <g transform="matrix(11.4105,0,0,11.4105,-6149.94,-5266.52)">
            <g>
                <path d="M574.702,517.323L574.702,501.327L582.823,501.327C584.51,501.327 585.741,501.753 586.514,502.604C587.288,503.456 587.674,504.428 587.674,505.522C587.674,506.319 587.45,507.04 587,507.684C586.551,508.329 585.881,508.772 584.991,509.014C587.061,509.514 588.096,510.756 588.096,512.741C588.096,513.928 587.731,514.989 587,515.922C586.27,516.856 584.709,517.323 582.319,517.323L574.702,517.323ZM579.225,507.456L581.498,507.456C582.069,507.456 582.471,507.311 582.706,507.022C582.94,506.733 583.057,506.424 583.057,506.096C583.057,505.206 582.51,504.76 581.416,504.76L579.225,504.76L579.225,507.456ZM579.225,513.76L581.616,513.76C582.209,513.76 582.645,513.614 582.922,513.321C583.2,513.028 583.338,512.698 583.338,512.331C583.338,511.963 583.204,511.626 582.934,511.317C582.665,511.008 582.17,510.854 581.452,510.854L579.225,510.854L579.225,513.76Z" style="fill-rule:nonzero;"/>
                <path d="M594.915,499.223C595.185,499.632 594.702,502.26 593.951,502.203C591.147,501.992 594.528,505.796 594.565,506.634C594.682,509.3 594.565,517.323 594.565,517.323L589.959,517.323C589.959,517.323 589.563,504.256 589.959,501.327C590.087,500.384 591.569,500.1 592.336,499.749C593.031,499.432 594.646,498.814 594.915,499.223Z" style="fill-rule:nonzero;"/>
                <path d="M608.371,517.323C607.318,517.323 604.639,517.226 601.651,517.323C599.634,517.388 598.683,516.421 598.139,515.723C597.098,514.387 596.393,513.049 596.393,511.393C596.393,509.612 597,508.128 598.215,506.94C599.43,505.753 601.01,505.159 602.956,505.159C604.916,505.159 606.493,505.745 607.684,506.917C608.875,508.088 609.471,509.557 609.471,511.323C609.471,513.104 609.393,513.363 608.537,514.643C607.593,516.052 610.371,517.323 608.371,517.323ZM602.92,514.733C603.647,514.733 604.09,514.356 604.25,513.602C604.411,512.848 604.491,512.061 604.491,511.241C604.491,510.124 604.377,509.319 604.151,508.827C603.924,508.335 603.518,508.088 602.932,508.088C602.393,508.088 601.998,508.342 601.748,508.85C601.498,509.358 601.373,510.194 601.373,511.358C601.373,512.725 601.502,513.629 601.76,514.071C602.018,514.512 602.405,514.733 602.92,514.733Z" style="fill-rule:nonzero;"/>
                <path d="M629.346,517.323L624.811,517.323L624.811,509.87C624.811,509.37 624.739,509.02 624.594,508.821C624.45,508.622 624.194,508.522 623.827,508.522C622.952,508.522 622.514,509.159 622.514,510.432L622.514,517.323L618.026,517.323L618.026,509.87C618.026,508.917 617.659,508.44 616.924,508.44C616.166,508.44 615.788,508.917 615.788,509.87L615.788,517.323L611.288,517.323C611.288,517.323 610.588,508.071 611.288,505.405C611.448,504.794 612.743,504.912 613.141,504.293C613.973,503.001 614.134,501.146 614.606,501.327C615.032,501.49 615.265,503.563 615.381,505.159C615.456,506.183 615.483,507.01 615.483,507.01C616.233,505.776 617.323,505.159 618.752,505.159C620.291,505.159 621.409,505.776 622.104,507.01C622.877,505.776 624.065,505.159 625.666,505.159C626.432,505.159 627.106,505.319 627.688,505.639C628.27,505.96 628.692,506.372 628.954,506.876C629.215,507.379 629.346,508.159 629.346,509.213L629.346,517.323Z" style="fill-rule:nonzero;"/>
            </g>
        </g>
    </g>
    <defs>
        <linearGradient id="_Linear1" x1="0" y1="0" x2="1" y2="0" gradientUnits="userSpaceOnUse" gradientTransform="matrix(358.801,128.77,-128.77,358.801,210.598,517.411)"><stop offset="0" style="stop-color:rgb(23,255,255);stop-opacity:1"/><stop offset="1" style="stop-color:rgb(0,179,134);stop-opacity:1"/></linearGradient>
    </defs>
</svg>
